<?xml version="1.0" encoding="UTF-8" standalone="no"?>
<!-- Generator: Adobe Illustrator 13.0.0, SVG Export Plug-In . SVG Version: 6.00 Build 14948)  -->

<svg
   xmlns:dc="http://purl.org/dc/elements/1.1/"
   xmlns:cc="http://creativecommons.org/ns#"
   xmlns:rdf="http://www.w3.org/1999/02/22-rdf-syntax-ns#"
   xmlns:svg="http://www.w3.org/2000/svg"
   xmlns="http://www.w3.org/2000/svg"
   xmlns:sodipodi="http://sodipodi.sourceforge.net/DTD/sodipodi-0.dtd"
   xmlns:inkscape="http://www.inkscape.org/namespaces/inkscape"
   version="1.1"
   id="Layer_1"
   x="0px"
   y="0px"
   width="1000"
   height="500"
   viewBox="0 0 1000 500"
   xml:space="preserve"
   inkscape:version="0.91 r13725"
   sodipodi:docname="mastercard.svg"
   inkscape:export-filename="E:\My Documents\GitHub\django-helcim\helcim\static\helcim\mastercard.png"
   inkscape:export-xdpi="22.5"
   inkscape:export-ydpi="22.5"><metadata
     id="metadata39"><rdf:RDF><cc:Work
         rdf:about=""><dc:format>image/svg+xml</dc:format><dc:type
           rdf:resource="http://purl.org/dc/dcmitype/StillImage" /><dc:title></dc:title></cc:Work></rdf:RDF></metadata><defs
     id="defs37" /><sodipodi:namedview
     pagecolor="#ffffff"
     bordercolor="#666666"
     borderopacity="1"
     objecttolerance="10"
     gridtolerance="10"
     guidetolerance="10"
     inkscape:pageopacity="0"
     inkscape:pageshadow="2"
     inkscape:window-width="1920"
     inkscape:window-height="1017"
     id="namedview35"
     showgrid="false"
     inkscape:zoom="0.35944595"
     inkscape:cx="565.09697"
     inkscape:cy="330.55844"
     inkscape:window-x="1912"
     inkscape:window-y="-8"
     inkscape:window-maximized="1"
     inkscape:current-layer="Layer_1" /><g
     id="layer1"
     transform="matrix(2.5332275,0,0,2.5387153,120.01714,20.247538)"><g
       id="g10305"><path
         id="path2268"
         style="fill:#ff9900"
         d="m 298.032,90.5 c 0.014,48.936 -39.646,88.614 -88.582,88.627 -48.937,0.012 -88.614,-39.646 -88.627,-88.582 0,-0.016 0,-0.029 0,-0.045 -0.013,-48.935 39.647,-88.615 88.581,-88.628 48.937,-0.013 88.615,39.647 88.628,88.583 0,0.015 0,0.029 0,0.045 z"
         inkscape:connector-curvature="0" /><path
         id="path1350"
         style="fill:#cc0000"
         d="M 90.001,1.895 C 41.355,2.204 1.967,41.781 1.967,90.5 c 0,48.909 39.695,88.604 88.605,88.604 22.955,0 43.879,-8.748 59.624,-23.086 -0.001,0 -0.003,-0.002 -0.007,-0.004 l 0.019,0 c 3.224,-2.938 6.231,-6.108 8.995,-9.488 l -18.153,0 c -2.424,-2.928 -4.627,-5.979 -6.606,-9.127 l 31.308,0 c 1.904,-3.047 3.628,-6.211 5.158,-9.488 l -41.635,0 c -1.419,-3.042 -2.651,-6.153 -3.703,-9.309 l 49.045,0 c 2.956,-8.832 4.56,-18.281 4.56,-28.103 0,-6.512 -0.706,-12.861 -2.042,-18.974 l -54.164,0 c 0.671,-3.146 1.518,-6.254 2.528,-9.308 l 49.063,0 c -1.097,-3.25 -2.371,-6.417 -3.82,-9.487 l -41.472,0 c 1.496,-3.196 3.191,-6.305 5.084,-9.307 l 31.285,0 c -2.082,-3.317 -4.386,-6.486 -6.877,-9.488 l -17.443,0 c 2.697,-3.174 5.666,-6.163 8.889,-8.95 -15.746,-14.34 -36.676,-23.09 -59.636,-23.09 -0.191,0 -0.38,-0.001 -0.571,0 z"
         inkscape:connector-curvature="0" /></g><g
       id="g16480"><g
         id="g13802"
         transform="translate(-13.74405,15.9939)"><path
           id="path13804"
           style="fill:#000066"
           d="m 133.719,99.926 1.18,-8.02 c -0.645,0 -1.593,0.279 -2.431,0.279 -3.284,0 -3.694,-1.755 -3.436,-3.037 l 3.236,-16.13 4.992,0 1.029,-9.103 -4.705,0 0.958,-5.516 -9.842,0 c -0.208,0.208 -5.568,31.022 -5.568,34.776 0,5.555 3.118,8.027 7.516,7.988 3.442,-0.029 6.125,-0.982 7.071,-1.237 z"
           inkscape:connector-curvature="0" /><path
           id="path13806"
           style="fill:#000066"
           d="m 136.706,84.638 c 0,13.332 8.799,16.499 16.297,16.499 6.921,0 10.55,-1.604 10.55,-1.604 l 1.662,-9.1 c 0,0 -5.848,2.378 -10.601,2.378 -10.131,0 -8.355,-7.554 -8.355,-7.554 l 19.463,0.059 c 0,0 1.239,-6.111 1.239,-8.602 0,-6.217 -3.387,-13.849 -13.745,-13.849 -9.486,0.002 -16.51,10.223 -16.51,21.773 z m 16.546,-13.325 c 5.324,0 4.342,5.984 4.342,6.469 l -10.474,0 c 0,-0.62 0.989,-6.469 6.132,-6.469 z"
           inkscape:connector-curvature="0" /><path
           id="path13808"
           style="fill:#000066"
           d="m 212.99,99.923 1.689,-10.284 c 0,0 -4.632,2.321 -7.807,2.321 -6.693,0 -9.378,-5.11 -9.378,-10.601 0,-11.137 5.758,-17.265 12.168,-17.265 4.808,0 8.665,2.699 8.665,2.699 l 1.54,-9.993 c 0,0 -4.554,-3.289 -9.456,-3.308 -14.745,-0.058 -23.182,10.208 -23.182,27.955 0,11.763 6.248,19.768 17.506,19.768 3.183,0 8.255,-1.292 8.255,-1.292 z"
           inkscape:connector-curvature="0" /><path
           id="path13810"
           style="fill:#000066"
           d="m 81.83,63.012 c -6.469,0 -11.427,2.079 -11.427,2.079 l -1.37,8.127 c 0,0 4.093,-1.663 10.281,-1.663 3.513,0 6.083,0.395 6.083,3.25 0,1.734 -0.314,2.374 -0.314,2.374 0,0 -2.772,-0.231 -4.056,-0.231 -9.21,0 -16.729,3.482 -16.729,13.98 0,8.273 5.623,10.17 9.108,10.17 6.657,0 9.292,-4.203 9.444,-4.215 l -0.077,3.488 c 0,0 8.306,0 8.307,0 l 3.706,-25.98 C 94.786,63.366 85.17,63.012 81.83,63.012 Z m 1.438,21.096 c 0.181,1.586 -0.41,9.086 -6.092,9.086 -2.93,0 -3.691,-2.24 -3.691,-3.562 0,-2.584 1.403,-5.683 8.315,-5.683 1.61,0 1.197,0.116 1.468,0.159 z"
           inkscape:connector-curvature="0" /><path
           id="path13812"
           style="fill:#000066"
           d="m 103.615,100.906 c 2.125,0 14.272,0.541 14.272,-11.994 0,-11.721 -11.244,-9.404 -11.244,-14.114 0,-2.342 1.833,-3.08 5.184,-3.08 1.329,0 6.447,0.423 6.447,0.423 l 1.189,-8.33 c 0,10e-4 -3.312,-0.741 -8.704,-0.741 -6.979,0 -14.063,2.786 -14.063,12.318 0,10.802 11.812,9.717 11.812,14.267 0,3.037 -3.3,3.287 -5.844,3.287 -4.401,0 -8.363,-1.511 -8.377,-1.438 l -1.259,8.245 c 0.229,0.07 2.674,1.157 10.587,1.157 z"
           inkscape:connector-curvature="0" /><path
           id="path13814"
           style="fill:#000066"
           d="m 290.807,55.455 -1.705,12.709 c 0,0 -3.553,-4.905 -9.112,-4.905 -10.459,0 -15.849,10.423 -15.849,22.396 0,7.73 3.844,15.307 11.699,15.307 5.651,0 8.784,-3.941 8.784,-3.941 l -0.415,3.365 9.178,0 7.207,-44.862 -9.787,-0.069 z m -4.052,24.701 c 0,4.983 -2.468,11.64 -7.581,11.64 -3.396,0 -4.988,-2.851 -4.988,-7.324 0,-7.315 3.285,-12.14 7.432,-12.14 3.394,0 5.137,2.33 5.137,7.824 z"
           inkscape:connector-curvature="0" /><path
           id="path13816"
           style="fill:#000066"
           d="m 30.749,100.423 5.743,-33.87 0.844,33.87 6.499,0 12.125,-33.87 -5.371,33.87 9.658,0 7.437,-44.922 -15.342,-0.117 -9.126,27.504 -0.25,-27.387 -14.06,0 -7.544,44.922 9.387,0 0,0 z"
           inkscape:connector-curvature="0" /><path
           id="path13818"
           style="fill:#000066"
           d="m 176.101,100.487 c 2.746,-15.615 3.724,-27.947 11.732,-25.393 1.15,-6.044 3.891,-11.3 5.143,-13.858 0,0 -0.396,-0.589 -2.871,-0.589 -4.225,0 -9.866,8.574 -9.866,8.574 l 0.843,-5.301 -8.786,0 -5.884,36.566 9.689,0 z"
           inkscape:connector-curvature="0" /><g
           id="use14699"
           transform="translate(845.3001,0)"><path
             id="path13810_1_"
             style="fill:#000066"
             d="m -612.55,63.012 c -6.472,0 -11.43,2.079 -11.43,2.079 l -1.369,8.127 c 0,0 4.095,-1.663 10.28,-1.663 3.514,0 6.083,0.395 6.083,3.25 0,1.734 -0.313,2.374 -0.313,2.374 0,0 -2.771,-0.231 -4.055,-0.231 -9.211,0 -16.729,3.482 -16.729,13.98 0,8.273 5.622,10.17 9.107,10.17 6.655,0 9.292,-4.203 9.443,-4.215 l -0.078,3.488 8.309,0 3.705,-25.98 c 10e-4,-11.025 -9.615,-11.379 -12.953,-11.379 z m 1.436,21.096 c 0.18,1.586 -0.411,9.086 -6.092,9.086 -2.932,0 -3.692,-2.24 -3.692,-3.562 0,-2.584 1.402,-5.683 8.315,-5.683 1.611,0 1.199,0.116 1.469,0.159 z"
             inkscape:connector-curvature="0" /></g><path
           id="use14701"
           style="fill:#000066"
           d="m 255.266,100.487 c 1.508,-11.488 4.299,-27.616 11.731,-25.393 1.149,-6.044 0.041,-6.028 -2.433,-6.028 -4.228,0 -5.164,0.154 -5.164,0.154 l 0.844,-5.301 -8.785,0 -5.884,36.567 9.691,0 0,10e-4 z"
           inkscape:connector-curvature="0" /></g><g
         id="g10289"><path
           id="path4157"
           style="fill:#ffffff"
           d="m 122.434,113.059 1.181,-8.019 c -0.645,0 -1.594,0.276 -2.431,0.276 -3.284,0 -3.646,-1.746 -3.437,-3.037 l 2.653,-16.362 4.991,0 1.205,-8.87 -4.706,0 0.958,-5.516 -9.434,0 c -0.208,0.208 -5.569,31.023 -5.569,34.775 0,5.555 3.119,8.029 7.517,7.989 3.444,-0.029 6.126,-0.982 7.072,-1.236 z"
           inkscape:connector-curvature="0" /><path
           id="path4155"
           style="fill:#ffffff"
           d="m 125.423,97.77 c 0,13.332 8.8,16.5 16.297,16.5 6.92,0 9.965,-1.547 9.965,-1.547 l 1.662,-9.099 c 0,0 -5.264,2.319 -10.018,2.319 -10.13,0 -8.356,-7.553 -8.356,-7.553 l 19.172,0 c 0,0 1.238,-6.113 1.238,-8.604 0,-6.216 -3.094,-13.79 -13.452,-13.79 -9.486,0.002 -16.508,10.223 -16.508,21.774 z m 16.544,-13.325 c 5.324,0 4.342,5.983 4.342,6.467 l -10.474,0 c 0,-0.618 0.99,-6.467 6.132,-6.467 z"
           inkscape:connector-curvature="0" /><path
           id="path4151"
           style="fill:#ffffff"
           d="m 201.707,113.055 1.688,-10.285 c 0,0 -4.629,2.321 -7.806,2.321 -6.692,0 -9.376,-5.11 -9.376,-10.6 0,-11.137 5.758,-17.264 12.168,-17.264 4.807,0 8.665,2.699 8.665,2.699 l 1.54,-9.993 c 0,0 -5.721,-2.315 -10.625,-2.315 -10.891,0 -21.486,9.448 -21.486,27.192 0,11.766 5.721,19.537 16.979,19.537 3.183,0.001 8.253,-1.292 8.253,-1.292 z"
           inkscape:connector-curvature="0" /><path
           id="path4149"
           style="fill:#ffffff"
           d="m 70.547,76.143 c -6.469,0 -11.428,2.079 -11.428,2.079 l -1.369,8.127 c 0,0 4.093,-1.663 10.28,-1.663 3.513,0 6.083,0.395 6.083,3.25 0,1.734 -0.315,2.374 -0.315,2.374 0,0 -2.771,-0.232 -4.054,-0.232 -8.159,0 -16.73,3.482 -16.73,13.98 0,8.272 5.623,10.17 9.108,10.17 6.656,0 9.525,-4.319 9.678,-4.332 l -0.311,3.605 8.307,0 3.706,-25.981 c 0,-11.022 -9.615,-11.377 -12.955,-11.377 z m 2.021,21.154 c 0.18,1.587 -0.995,9.026 -6.675,9.026 -2.93,0 -3.692,-2.238 -3.692,-3.562 0,-2.582 1.403,-5.682 8.316,-5.682 1.608,0.002 1.78,0.174 2.051,0.218 z"
           inkscape:connector-curvature="0" /><path
           id="path4145"
           style="fill:#ffffff"
           d="m 92.331,114.038 c 2.125,0 14.273,0.54 14.273,-11.995 0,-11.719 -11.245,-9.404 -11.245,-14.112 0,-2.344 1.833,-3.082 5.183,-3.082 1.33,0 6.447,0.423 6.447,0.423 l 1.19,-8.33 c 0,0.001 -3.312,-0.741 -8.704,-0.741 -6.979,0 -14.063,2.786 -14.063,12.318 0,10.801 11.812,9.717 11.812,14.267 0,3.037 -3.3,3.284 -5.843,3.284 -4.401,0 -8.364,-1.51 -8.378,-1.438 l -1.258,8.246 c 0.228,0.07 2.672,1.16 10.586,1.16 z"
           inkscape:connector-curvature="0" /><path
           id="path4139"
           style="fill:#ffffff"
           d="m 279.852,68.668 -2.035,12.627 c 0,0 -3.551,-4.905 -9.11,-4.905 -8.644,0 -15.849,10.422 -15.849,22.397 0,7.73 3.843,15.304 11.699,15.304 5.651,0 8.784,-3.94 8.784,-3.94 l -0.415,3.365 9.176,0 7.207,-44.863 -9.457,0.015 z m -4.381,24.62 c 0,4.983 -2.467,11.639 -7.582,11.639 -3.395,0 -4.986,-2.85 -4.986,-7.323 0,-7.314 3.285,-12.14 7.43,-12.14 3.396,-0.001 5.138,2.332 5.138,7.824 z"
           inkscape:connector-curvature="0" /><path
           id="path4133"
           style="fill:#ffffff"
           d="m 19.466,113.555 5.743,-33.87 0.843,33.87 6.5,0 12.125,-33.87 -5.371,33.87 9.658,0 7.438,-44.923 -14.935,0 -9.301,27.563 -0.484,-27.563 -13.767,0 -7.545,44.923 9.096,0 z"
           inkscape:connector-curvature="0" /><path
           id="path4131"
           style="fill:#ffffff"
           d="m 164.818,113.617 c 2.746,-15.616 3.255,-28.296 9.808,-25.975 1.147,-6.044 2.254,-8.382 3.506,-10.94 0,0 -0.587,-0.123 -1.819,-0.123 -4.225,0 -7.355,5.772 -7.355,5.772 l 0.841,-5.301 -8.784,0 -5.885,36.567 9.688,0 z"
           inkscape:connector-curvature="0" /><g
           id="use8523"
           transform="translate(847.0062,0)"><path
             id="path4149_1_"
             style="fill:#ffffff"
             d="m -623.531,76.143 c -6.469,0 -11.428,2.079 -11.428,2.079 l -1.368,8.127 c 0,0 4.093,-1.663 10.28,-1.663 3.513,0 6.081,0.395 6.081,3.25 0,1.734 -0.313,2.374 -0.313,2.374 0,0 -2.771,-0.232 -4.055,-0.232 -8.158,0 -16.729,3.482 -16.729,13.98 0,8.272 5.622,10.17 9.107,10.17 6.656,0 9.525,-4.319 9.677,-4.332 l -0.309,3.605 c 0,0 8.304,0 8.307,0 l 3.705,-25.981 c 10e-4,-11.022 -9.615,-11.377 -12.955,-11.377 z m 2.024,21.154 c 0.18,1.587 -0.996,9.026 -6.678,9.026 -2.93,0 -3.69,-2.238 -3.69,-3.562 0,-2.582 1.403,-5.682 8.315,-5.682 1.608,0.002 1.779,0.174 2.053,0.218 z"
             inkscape:connector-curvature="0" /></g><g
           id="use8525"
           transform="translate(442.2857,0)"><path
             id="path4131_1_"
             style="fill:#ffffff"
             d="m -198.263,113.617 c 2.747,-15.616 3.256,-28.296 9.807,-25.975 1.149,-6.044 2.257,-8.382 3.508,-10.94 0,0 -0.587,-0.123 -1.819,-0.123 -4.225,0 -7.355,5.772 -7.355,5.772 l 0.841,-5.301 -8.784,0 -5.885,36.567 9.687,0 z"
             inkscape:connector-curvature="0" /></g></g></g></g></svg>