<?xml version="1.0" encoding="UTF-8" standalone="no"?>
<!-- Generator: Adobe Illustrator 16.0.0, SVG Export Plug-In . SVG Version: 6.00 Build 0)  -->

<svg
   xmlns:dc="http://purl.org/dc/elements/1.1/"
   xmlns:cc="http://creativecommons.org/ns#"
   xmlns:rdf="http://www.w3.org/1999/02/22-rdf-syntax-ns#"
   xmlns:svg="http://www.w3.org/2000/svg"
   xmlns="http://www.w3.org/2000/svg"
   xmlns:sodipodi="http://sodipodi.sourceforge.net/DTD/sodipodi-0.dtd"
   xmlns:inkscape="http://www.inkscape.org/namespaces/inkscape"
   version="1.1"
   id="Layer_1"
   x="0px"
   y="0px"
   width="2000"
   height="1000"
   viewBox="0 0 2000 999.99996"
   enable-background="new 0 0 258.381 161.154"
   xml:space="preserve"
   inkscape:version="0.91 r13725"
   sodipodi:docname="placeholder.svg"
   inkscape:export-filename="E:\My Documents\GitHub\django-helcim\helcim\static\helcim\placeholder.png"
   inkscape:export-xdpi="4.5"
   inkscape:export-ydpi="4.5"><metadata
     id="metadata23"><rdf:RDF><cc:Work
         rdf:about=""><dc:format>image/svg+xml</dc:format><dc:type
           rdf:resource="http://purl.org/dc/dcmitype/StillImage" /><dc:title /></cc:Work></rdf:RDF></metadata><defs
     id="defs21"><radialGradient
       cx="121.25"
       cy="97.588577"
       r="77.916664"
       fx="141.25"
       fy="77.588577"
       id="radialGradient3202"
       gradientUnits="userSpaceOnUse"><stop
         stop-color="#f0f0f0"
         offset="0"
         id="stop2891" /><stop
         stop-color="#ff8330"
         offset="1"
         id="stop2893" /></radialGradient></defs><sodipodi:namedview
     pagecolor="#ffffff"
     bordercolor="#666666"
     borderopacity="1"
     objecttolerance="10"
     gridtolerance="10"
     guidetolerance="10"
     inkscape:pageopacity="0"
     inkscape:pageshadow="2"
     inkscape:window-width="1920"
     inkscape:window-height="1057"
     id="namedview19"
     showgrid="false"
     inkscape:zoom="0.5"
     inkscape:cx="1053.365"
     inkscape:cy="510.06102"
     inkscape:window-x="-8"
     inkscape:window-y="-8"
     inkscape:window-maximized="1"
     inkscape:current-layer="Layer_1" /><g
     id="layer1"
     transform="matrix(0.86745011,0,0,0.85942792,1469.363,678.78594)"><path
       d="m 199.16666,97.588577 a 77.916664,77.916664 0 1 1 -155.833324,0 77.916664,77.916664 0 1 1 155.833324,0 z"
       transform="translate(-25.8333,3.33333)"
       id="path3194"
       style="fill:url(#radialGradient3202)"
       inkscape:connector-curvature="0" /></g><text
     xml:space="preserve"
     style="font-style:normal;font-variant:normal;font-weight:bold;font-stretch:normal;font-size:200.06221008px;line-height:125%;font-family:Verdana;-inkscape-font-specification:'Verdana Bold';text-align:start;writing-mode:lr-tb;text-anchor:start;fill:#000000;fill-opacity:1;stroke:none"
     x="1001.6828"
     y="822.61255"
     id="text2903"
     sodipodi:linespacing="125%"
     transform="scale(1.0046624,0.99535923)"><tspan
       sodipodi:role="line"
       id="tspan2905"
       x="1001.6828"
       y="822.61255">Disc</tspan></text>
<text
     xml:space="preserve"
     style="font-style:normal;font-variant:normal;font-weight:bold;font-stretch:normal;font-size:200.06221008px;line-height:125%;font-family:Verdana;-inkscape-font-specification:'Verdana Bold';text-align:start;writing-mode:lr-tb;text-anchor:start;fill:#000000;fill-opacity:1;stroke:none"
     x="1606.7384"
     y="822.71027"
     id="text2911"
     sodipodi:linespacing="125%"
     transform="scale(1.0046624,0.99535923)"><tspan
       sodipodi:role="line"
       id="tspan2913"
       x="1606.7384"
       y="822.71027">ver</tspan></text>
<g
     id="layer1-1"
     transform="matrix(2.5332275,0,0,2.5387153,20.017142,20.247507)"><g
       id="g10305"><path
         id="path2268"
         style="fill:#ff9900"
         d="m 298.032,90.5 c 0.014,48.936 -39.646,88.614 -88.582,88.627 -48.937,0.012 -88.614,-39.646 -88.627,-88.582 0,-0.016 0,-0.029 0,-0.045 -0.013,-48.935 39.647,-88.615 88.581,-88.628 48.937,-0.013 88.615,39.647 88.628,88.583 0,0.015 0,0.029 0,0.045 z"
         inkscape:connector-curvature="0" /><path
         id="path1350"
         style="fill:#cc0000"
         d="M 90.001,1.895 C 41.355,2.204 1.967,41.781 1.967,90.5 c 0,48.909 39.695,88.604 88.605,88.604 22.955,0 43.879,-8.748 59.624,-23.086 -0.001,0 -0.003,-0.002 -0.007,-0.004 l 0.019,0 c 3.224,-2.938 6.231,-6.108 8.995,-9.488 l -18.153,0 c -2.424,-2.928 -4.627,-5.979 -6.606,-9.127 l 31.308,0 c 1.904,-3.047 3.628,-6.211 5.158,-9.488 l -41.635,0 c -1.419,-3.042 -2.651,-6.153 -3.703,-9.309 l 49.045,0 c 2.956,-8.832 4.56,-18.281 4.56,-28.103 0,-6.512 -0.706,-12.861 -2.042,-18.974 l -54.164,0 c 0.671,-3.146 1.518,-6.254 2.528,-9.308 l 49.063,0 c -1.097,-3.25 -2.371,-6.417 -3.82,-9.487 l -41.472,0 c 1.496,-3.196 3.191,-6.305 5.084,-9.307 l 31.285,0 c -2.082,-3.317 -4.386,-6.486 -6.877,-9.488 l -17.443,0 c 2.697,-3.174 5.666,-6.163 8.889,-8.95 -15.746,-14.34 -36.676,-23.09 -59.636,-23.09 -0.191,0 -0.38,-0.001 -0.571,0 z"
         inkscape:connector-curvature="0" /></g><g
       id="g16480"><g
         id="g13802"
         transform="translate(-13.74405,15.9939)"><path
           id="path13804"
           style="fill:#000066"
           d="m 133.719,99.926 1.18,-8.02 c -0.645,0 -1.593,0.279 -2.431,0.279 -3.284,0 -3.694,-1.755 -3.436,-3.037 l 3.236,-16.13 4.992,0 1.029,-9.103 -4.705,0 0.958,-5.516 -9.842,0 c -0.208,0.208 -5.568,31.022 -5.568,34.776 0,5.555 3.118,8.027 7.516,7.988 3.442,-0.029 6.125,-0.982 7.071,-1.237 z"
           inkscape:connector-curvature="0" /><path
           id="path13806"
           style="fill:#000066"
           d="m 136.706,84.638 c 0,13.332 8.799,16.499 16.297,16.499 6.921,0 10.55,-1.604 10.55,-1.604 l 1.662,-9.1 c 0,0 -5.848,2.378 -10.601,2.378 -10.131,0 -8.355,-7.554 -8.355,-7.554 l 19.463,0.059 c 0,0 1.239,-6.111 1.239,-8.602 0,-6.217 -3.387,-13.849 -13.745,-13.849 -9.486,0.002 -16.51,10.223 -16.51,21.773 z m 16.546,-13.325 c 5.324,0 4.342,5.984 4.342,6.469 l -10.474,0 c 0,-0.62 0.989,-6.469 6.132,-6.469 z"
           inkscape:connector-curvature="0" /><path
           id="path13808"
           style="fill:#000066"
           d="m 212.99,99.923 1.689,-10.284 c 0,0 -4.632,2.321 -7.807,2.321 -6.693,0 -9.378,-5.11 -9.378,-10.601 0,-11.137 5.758,-17.265 12.168,-17.265 4.808,0 8.665,2.699 8.665,2.699 l 1.54,-9.993 c 0,0 -4.554,-3.289 -9.456,-3.308 -14.745,-0.058 -23.182,10.208 -23.182,27.955 0,11.763 6.248,19.768 17.506,19.768 3.183,0 8.255,-1.292 8.255,-1.292 z"
           inkscape:connector-curvature="0" /><path
           id="path13810"
           style="fill:#000066"
           d="m 81.83,63.012 c -6.469,0 -11.427,2.079 -11.427,2.079 l -1.37,8.127 c 0,0 4.093,-1.663 10.281,-1.663 3.513,0 6.083,0.395 6.083,3.25 0,1.734 -0.314,2.374 -0.314,2.374 0,0 -2.772,-0.231 -4.056,-0.231 -9.21,0 -16.729,3.482 -16.729,13.98 0,8.273 5.623,10.17 9.108,10.17 6.657,0 9.292,-4.203 9.444,-4.215 l -0.077,3.488 c 0,0 8.306,0 8.307,0 l 3.706,-25.98 C 94.786,63.366 85.17,63.012 81.83,63.012 Z m 1.438,21.096 c 0.181,1.586 -0.41,9.086 -6.092,9.086 -2.93,0 -3.691,-2.24 -3.691,-3.562 0,-2.584 1.403,-5.683 8.315,-5.683 1.61,0 1.197,0.116 1.468,0.159 z"
           inkscape:connector-curvature="0" /><path
           id="path13812"
           style="fill:#000066"
           d="m 103.615,100.906 c 2.125,0 14.272,0.541 14.272,-11.994 0,-11.721 -11.244,-9.404 -11.244,-14.114 0,-2.342 1.833,-3.08 5.184,-3.08 1.329,0 6.447,0.423 6.447,0.423 l 1.189,-8.33 c 0,10e-4 -3.312,-0.741 -8.704,-0.741 -6.979,0 -14.063,2.786 -14.063,12.318 0,10.802 11.812,9.717 11.812,14.267 0,3.037 -3.3,3.287 -5.844,3.287 -4.401,0 -8.363,-1.511 -8.377,-1.438 l -1.259,8.245 c 0.229,0.07 2.674,1.157 10.587,1.157 z"
           inkscape:connector-curvature="0" /><path
           id="path13814"
           style="fill:#000066"
           d="m 290.807,55.455 -1.705,12.709 c 0,0 -3.553,-4.905 -9.112,-4.905 -10.459,0 -15.849,10.423 -15.849,22.396 0,7.73 3.844,15.307 11.699,15.307 5.651,0 8.784,-3.941 8.784,-3.941 l -0.415,3.365 9.178,0 7.207,-44.862 -9.787,-0.069 z m -4.052,24.701 c 0,4.983 -2.468,11.64 -7.581,11.64 -3.396,0 -4.988,-2.851 -4.988,-7.324 0,-7.315 3.285,-12.14 7.432,-12.14 3.394,0 5.137,2.33 5.137,7.824 z"
           inkscape:connector-curvature="0" /><path
           id="path13816"
           style="fill:#000066"
           d="m 30.749,100.423 5.743,-33.87 0.844,33.87 6.499,0 12.125,-33.87 -5.371,33.87 9.658,0 7.437,-44.922 -15.342,-0.117 -9.126,27.504 -0.25,-27.387 -14.06,0 -7.544,44.922 9.387,0 0,0 z"
           inkscape:connector-curvature="0" /><path
           id="path13818"
           style="fill:#000066"
           d="m 176.101,100.487 c 2.746,-15.615 3.724,-27.947 11.732,-25.393 1.15,-6.044 3.891,-11.3 5.143,-13.858 0,0 -0.396,-0.589 -2.871,-0.589 -4.225,0 -9.866,8.574 -9.866,8.574 l 0.843,-5.301 -8.786,0 -5.884,36.566 9.689,0 z"
           inkscape:connector-curvature="0" /><g
           id="use14699"
           transform="translate(845.3001,0)"><path
             id="path13810_1_"
             style="fill:#000066"
             d="m -612.55,63.012 c -6.472,0 -11.43,2.079 -11.43,2.079 l -1.369,8.127 c 0,0 4.095,-1.663 10.28,-1.663 3.514,0 6.083,0.395 6.083,3.25 0,1.734 -0.313,2.374 -0.313,2.374 0,0 -2.771,-0.231 -4.055,-0.231 -9.211,0 -16.729,3.482 -16.729,13.98 0,8.273 5.622,10.17 9.107,10.17 6.655,0 9.292,-4.203 9.443,-4.215 l -0.078,3.488 8.309,0 3.705,-25.98 c 10e-4,-11.025 -9.615,-11.379 -12.953,-11.379 z m 1.436,21.096 c 0.18,1.586 -0.411,9.086 -6.092,9.086 -2.932,0 -3.692,-2.24 -3.692,-3.562 0,-2.584 1.402,-5.683 8.315,-5.683 1.611,0 1.199,0.116 1.469,0.159 z"
             inkscape:connector-curvature="0" /></g><path
           id="use14701"
           style="fill:#000066"
           d="m 255.266,100.487 c 1.508,-11.488 4.299,-27.616 11.731,-25.393 1.149,-6.044 0.041,-6.028 -2.433,-6.028 -4.228,0 -5.164,0.154 -5.164,0.154 l 0.844,-5.301 -8.785,0 -5.884,36.567 9.691,0 0,10e-4 z"
           inkscape:connector-curvature="0" /></g><g
         id="g10289"><path
           id="path4157"
           style="fill:#ffffff"
           d="m 122.434,113.059 1.181,-8.019 c -0.645,0 -1.594,0.276 -2.431,0.276 -3.284,0 -3.646,-1.746 -3.437,-3.037 l 2.653,-16.362 4.991,0 1.205,-8.87 -4.706,0 0.958,-5.516 -9.434,0 c -0.208,0.208 -5.569,31.023 -5.569,34.775 0,5.555 3.119,8.029 7.517,7.989 3.444,-0.029 6.126,-0.982 7.072,-1.236 z"
           inkscape:connector-curvature="0" /><path
           id="path4155"
           style="fill:#ffffff"
           d="m 125.423,97.77 c 0,13.332 8.8,16.5 16.297,16.5 6.92,0 9.965,-1.547 9.965,-1.547 l 1.662,-9.099 c 0,0 -5.264,2.319 -10.018,2.319 -10.13,0 -8.356,-7.553 -8.356,-7.553 l 19.172,0 c 0,0 1.238,-6.113 1.238,-8.604 0,-6.216 -3.094,-13.79 -13.452,-13.79 -9.486,0.002 -16.508,10.223 -16.508,21.774 z m 16.544,-13.325 c 5.324,0 4.342,5.983 4.342,6.467 l -10.474,0 c 0,-0.618 0.99,-6.467 6.132,-6.467 z"
           inkscape:connector-curvature="0" /><path
           id="path4151"
           style="fill:#ffffff"
           d="m 201.707,113.055 1.688,-10.285 c 0,0 -4.629,2.321 -7.806,2.321 -6.692,0 -9.376,-5.11 -9.376,-10.6 0,-11.137 5.758,-17.264 12.168,-17.264 4.807,0 8.665,2.699 8.665,2.699 l 1.54,-9.993 c 0,0 -5.721,-2.315 -10.625,-2.315 -10.891,0 -21.486,9.448 -21.486,27.192 0,11.766 5.721,19.537 16.979,19.537 3.183,0.001 8.253,-1.292 8.253,-1.292 z"
           inkscape:connector-curvature="0" /><path
           id="path4149"
           style="fill:#ffffff"
           d="m 70.547,76.143 c -6.469,0 -11.428,2.079 -11.428,2.079 l -1.369,8.127 c 0,0 4.093,-1.663 10.28,-1.663 3.513,0 6.083,0.395 6.083,3.25 0,1.734 -0.315,2.374 -0.315,2.374 0,0 -2.771,-0.232 -4.054,-0.232 -8.159,0 -16.73,3.482 -16.73,13.98 0,8.272 5.623,10.17 9.108,10.17 6.656,0 9.525,-4.319 9.678,-4.332 l -0.311,3.605 8.307,0 3.706,-25.981 c 0,-11.022 -9.615,-11.377 -12.955,-11.377 z m 2.021,21.154 c 0.18,1.587 -0.995,9.026 -6.675,9.026 -2.93,0 -3.692,-2.238 -3.692,-3.562 0,-2.582 1.403,-5.682 8.316,-5.682 1.608,0.002 1.78,0.174 2.051,0.218 z"
           inkscape:connector-curvature="0" /><path
           id="path4145"
           style="fill:#ffffff"
           d="m 92.331,114.038 c 2.125,0 14.273,0.54 14.273,-11.995 0,-11.719 -11.245,-9.404 -11.245,-14.112 0,-2.344 1.833,-3.082 5.183,-3.082 1.33,0 6.447,0.423 6.447,0.423 l 1.19,-8.33 c 0,0.001 -3.312,-0.741 -8.704,-0.741 -6.979,0 -14.063,2.786 -14.063,12.318 0,10.801 11.812,9.717 11.812,14.267 0,3.037 -3.3,3.284 -5.843,3.284 -4.401,0 -8.364,-1.51 -8.378,-1.438 l -1.258,8.246 c 0.228,0.07 2.672,1.16 10.586,1.16 z"
           inkscape:connector-curvature="0" /><path
           id="path4139"
           style="fill:#ffffff"
           d="m 279.852,68.668 -2.035,12.627 c 0,0 -3.551,-4.905 -9.11,-4.905 -8.644,0 -15.849,10.422 -15.849,22.397 0,7.73 3.843,15.304 11.699,15.304 5.651,0 8.784,-3.94 8.784,-3.94 l -0.415,3.365 9.176,0 7.207,-44.863 -9.457,0.015 z m -4.381,24.62 c 0,4.983 -2.467,11.639 -7.582,11.639 -3.395,0 -4.986,-2.85 -4.986,-7.323 0,-7.314 3.285,-12.14 7.43,-12.14 3.396,-0.001 5.138,2.332 5.138,7.824 z"
           inkscape:connector-curvature="0" /><path
           id="path4133"
           style="fill:#ffffff"
           d="m 19.466,113.555 5.743,-33.87 0.843,33.87 6.5,0 12.125,-33.87 -5.371,33.87 9.658,0 7.438,-44.923 -14.935,0 -9.301,27.563 -0.484,-27.563 -13.767,0 -7.545,44.923 9.096,0 z"
           inkscape:connector-curvature="0" /><path
           id="path4131"
           style="fill:#ffffff"
           d="m 164.818,113.617 c 2.746,-15.616 3.255,-28.296 9.808,-25.975 1.147,-6.044 2.254,-8.382 3.506,-10.94 0,0 -0.587,-0.123 -1.819,-0.123 -4.225,0 -7.355,5.772 -7.355,5.772 l 0.841,-5.301 -8.784,0 -5.885,36.567 9.688,0 z"
           inkscape:connector-curvature="0" /><g
           id="use8523"
           transform="translate(847.0062,0)"><path
             id="path4149_1_"
             style="fill:#ffffff"
             d="m -623.531,76.143 c -6.469,0 -11.428,2.079 -11.428,2.079 l -1.368,8.127 c 0,0 4.093,-1.663 10.28,-1.663 3.513,0 6.081,0.395 6.081,3.25 0,1.734 -0.313,2.374 -0.313,2.374 0,0 -2.771,-0.232 -4.055,-0.232 -8.158,0 -16.729,3.482 -16.729,13.98 0,8.272 5.622,10.17 9.107,10.17 6.656,0 9.525,-4.319 9.677,-4.332 l -0.309,3.605 c 0,0 8.304,0 8.307,0 l 3.705,-25.981 c 10e-4,-11.022 -9.615,-11.377 -12.955,-11.377 z m 2.024,21.154 c 0.18,1.587 -0.996,9.026 -6.678,9.026 -2.93,0 -3.69,-2.238 -3.69,-3.562 0,-2.582 1.403,-5.682 8.315,-5.682 1.608,0.002 1.779,0.174 2.053,0.218 z"
             inkscape:connector-curvature="0" /></g><g
           id="use8525"
           transform="translate(442.2857,0)"><path
             id="path4131_1_"
             style="fill:#ffffff"
             d="m -198.263,113.617 c 2.747,-15.616 3.256,-28.296 9.807,-25.975 1.149,-6.044 2.257,-8.382 3.508,-10.94 0,0 -0.587,-0.123 -1.819,-0.123 -4.225,0 -7.355,5.772 -7.355,5.772 l 0.841,-5.301 -8.784,0 -5.885,36.567 9.687,0 z"
             inkscape:connector-curvature="0" /></g></g></g></g><g
     id="g4158"
     transform="matrix(4.2082695,0,0,4.1062141,947.89609,2.6293124)"><polygon
       points="127.582,24.995 116.145,95.719 97.858,95.719 109.296,24.995 "
       id="polygon9"
       style="fill:#00579f" /><path
       d="m 182.437,26.724 c -3.607,-1.431 -9.328,-3.011 -16.402,-3.011 -18.059,0 -30.776,9.63 -30.854,23.398 -0.15,10.158 9.105,15.8 16.027,19.187 7.075,3.461 9.48,5.72 9.48,8.805 -0.072,4.738 -5.717,6.922 -10.982,6.922 -7.301,0 -11.213,-1.126 -17.158,-3.762 l -2.408,-1.13 -2.559,15.876 c 4.289,1.954 12.191,3.688 20.395,3.764 19.188,0 31.68,-9.481 31.828,-24.153 0.073,-8.051 -4.814,-14.22 -15.35,-19.261 -6.396,-3.236 -10.313,-5.418 -10.313,-8.729 0.075,-3.01 3.313,-6.093 10.533,-6.093 5.945,-0.151 10.313,1.278 13.622,2.708 l 1.654,0.751 2.487,-15.272 0,0 z"
       id="path11"
       inkscape:connector-curvature="0"
       style="fill:#00579f" /><path
       d="m 206.742,70.664 c 1.506,-4.063 7.301,-19.788 7.301,-19.788 -0.076,0.151 1.503,-4.138 2.406,-6.771 l 1.278,6.094 c 0,0 3.463,16.929 4.215,20.465 -2.858,0 -11.588,0 -15.2,0 l 0,0 z m 22.573,-45.669 -14.145,0 c -4.362,0 -7.676,1.278 -9.558,5.868 l -27.163,64.855 19.188,0 c 0,0 3.159,-8.729 3.838,-10.609 2.105,0 20.771,0 23.479,0 0.525,2.483 2.182,10.609 2.182,10.609 l 16.932,0 -14.753,-70.723 0,0 z"
       id="path13"
       inkscape:connector-curvature="0"
       style="fill:#00579f" /><path
       d="M 82.584,24.995 64.675,73.222 62.718,63.441 C 59.407,52.155 49.023,39.893 37.435,33.796 l 16.404,61.848 19.338,0 28.744,-70.649 -19.337,0 0,0 z"
       id="path15"
       inkscape:connector-curvature="0"
       style="fill:#00579f" /><path
       d="m 48.045,24.995 -29.422,0 -0.301,1.429 c 22.951,5.869 38.151,20.016 44.396,37.02 L 56.322,30.94 c -1.053,-4.517 -4.289,-5.796 -8.277,-5.945 l 0,0 z"
       id="path17"
       inkscape:connector-curvature="0"
       style="fill:#faa61a" /></g><path
     sodipodi:nodetypes="ccccc"
     inkscape:connector-curvature="0"
     id="path3078"
     d="m 0,499.99997 1000,0 0,500 -1000,0 z"
     style="fill:#016fd0;fill-opacity:1;stroke:none" /><path
     sodipodi:nodetypes="cccccccccccccccccccc"
     inkscape:connector-curvature="0"
     id="path3082"
     d="m 194,939.58187 0,-156.6094 166.25826,0 17.83771,23.1924 18.42755,-23.1924 603.47648,0 0,145.8088 c 0,0 -15.782,10.644 -34.0345,10.8006 l -334.15745,0 -20.11133,-24.6872 0,24.6872 -65.90326,0 0,-42.1418 c 0,0 -9.00248,5.8825 -28.46525,5.8825 l -22.43186,0 0,36.2593 -99.78312,0 -17.81222,-23.6898 -18.08572,23.6898 z"
     style="fill:#ffffff;stroke:none" /><path
     sodipodi:nodetypes="cccccccccccccccccccccccccccccccccccccc"
     inkscape:connector-curvature="0"
     id="path3080"
     d="m 0,664.93687 37.39313,-87.1766 64.6675,0 21.22103,48.8328 0,-48.8328 80.38767,0 12.63289,35.2949 12.24716,-35.2949 360.8573,0 0,17.7439 c 0,0 18.96995,-17.7439 50.14586,-17.7439 l 117.08499,0.4092 20.85469,48.1937 0,-48.6029 67.27259,0 18.5154,27.6834 0,-27.6834 67.88979,0 0,156.6093 -67.88979,0 -17.74392,-27.7731 0,27.7731 -98.83835,0 -9.93959,-24.6872 -26.57108,0 -9.77781,24.6872 -67.02872,0 c -26.82589,0 -43.97406,-17.3816 -43.97406,-17.3816 l 0,17.3816 -101.06318,0 -20.05835,-24.6872 0,24.6872 -375.80462,0 -9.93274,-24.6872 -26.48635,0 -9.86254,24.6872 -46.1989,0 z"
     style="fill:#ffffff;stroke:none" /><path
     id="path3046"
     d="m 50.62803,597.06687 -50.43516,117.2641 32.83589,0 9.30592,-23.4816 54.09966,0 9.2577,23.4816 33.55915,0 -50.38695,-117.2641 -38.23621,0 z m 18.66004,27.2909 16.49028,41.0329 -33.02877,0 16.53849,-41.0329 z"
     style="fill:#016fd0;fill-opacity:1;stroke:none"
     inkscape:connector-curvature="0" /><path
     sodipodi:nodetypes="cccccccccccccc"
     inkscape:connector-curvature="0"
     id="path3048"
     d="m 142.72282,714.31127 0,-117.2642 46.66163,0.1733 27.13999,75.6045 26.4901,-75.7778 46.28848,0 0,117.2642 -29.31604,0 0,-86.4052 -31.07562,86.4052 -25.71023,0 -31.16227,-86.4052 0,86.4052 z"
     style="fill:#016fd0;fill-opacity:1;stroke:none" /><path
     sodipodi:nodetypes="ccccccccccccc"
     inkscape:connector-curvature="0"
     id="path3050"
     d="m 309.36136,714.31127 0,-117.2642 95.66287,0 0,26.2302 -66.03824,0 0,20.0583 64.49529,0 0,24.6872 -64.49529,0 0,20.8298 66.03824,0 0,25.4587 z"
     style="fill:#016fd0;fill-opacity:1;stroke:none" /><path
     id="path3052"
     d="m 421.99667,597.06687 0,117.2641 29.31604,0 0,-41.6596 12.34359,0 35.15032,41.6596 35.82536,0 -38.57374,-43.2025 c 15.8309,-1.3359 32.16085,-14.9233 32.16085,-36.0182 0,-24.6765 -19.36827,-38.0434 -40.98459,-38.0434 l -65.23783,0 z m 29.31604,26.2301 33.51093,0 c 8.03881,0 13.88655,6.2882 13.88655,12.3436 0,7.7905 -7.57673,12.3436 -13.45259,12.3436 l -33.94489,0 0,-24.6872 z"
     style="fill:#016fd0;fill-opacity:1;stroke:none"
     inkscape:connector-curvature="0" /><path
     sodipodi:nodetypes="ccccc"
     inkscape:connector-curvature="0"
     id="path3054"
     d="m 570.11982,714.31127 -29.93322,0 0,-117.2642 29.93322,0 z"
     style="fill:#016fd0;fill-opacity:1;stroke:none" /><path
     sodipodi:nodetypes="ccccccccccc"
     inkscape:connector-curvature="0"
     id="path3056"
     d="m 641.09549,714.31127 -6.4611,0 c -31.26172,0 -50.24229,-24.6292 -50.24229,-58.1499 0,-34.3488 18.76806,-59.1143 58.24634,-59.1143 l 32.40194,0 0,27.7731 -33.58657,0 c -16.026,0 -27.35994,12.5067 -27.35994,31.6305 0,22.7096 12.95987,32.2476 31.63047,32.2476 l 7.71474,0 z"
     style="fill:#016fd0;fill-opacity:1;stroke:none" /><path
     inkscape:connector-curvature="0"
     style="fill:#016fd0;fill-opacity:1;stroke:none"
     d="m 704.8868,597.06687 -50.43515,117.2641 32.83589,0 9.30591,-23.4816 54.09967,0 9.25769,23.4816 33.55915,0 -50.38694,-117.2641 -38.23622,0 z m 18.66005,27.2909 16.49027,41.0329 -33.02876,0 16.53849,-41.0329 z"
     id="path3058" /><path
     sodipodi:nodetypes="ccccccccccc"
     inkscape:connector-curvature="0"
     id="path3060"
     d="m 796.93338,714.31127 0,-117.2642 37.27187,0 47.59035,73.6759 0,-73.6759 29.316,0 0,117.2642 -36.0664,0 -48.79578,-75.6045 0,75.6045 z"
     style="fill:#016fd0;fill-opacity:1;stroke:none" /><path
     style="fill:#016fd0;fill-opacity:1;stroke:none"
     d="m 214.0494,919.52357 0,-117.2642 95.62016,0 0,26.2302 -66.00875,0 0,20.0583 64.46649,0 0,24.6872 -64.46649,0 0,20.8298 66.00875,0 0,25.4587 z"
     id="path3062"
     inkscape:connector-curvature="0"
     sodipodi:nodetypes="ccccccccccccc" /><path
     sodipodi:nodetypes="ccccccccccccc"
     inkscape:connector-curvature="0"
     id="path3064"
     d="m 682.58821,919.52357 0,-117.2642 95.62018,0 0,26.2302 -66.00877,0 0,20.0583 64.15805,0 0,24.6872 -64.15805,0 0,20.8298 66.00877,0 0,25.4587 z"
     style="fill:#016fd0;fill-opacity:1;stroke:none" /><path
     sodipodi:nodetypes="ccccccccccccc"
     inkscape:connector-curvature="0"
     id="path3066"
     d="m 313.38062,919.52357 46.557,-57.9089 -47.66549,-59.3553 36.91786,0 28.38724,36.6932 28.48363,-36.6932 35.472,0 -47.03896,58.6321 46.64271,58.6321 -36.91203,0 -27.56306,-36.1148 -26.89317,36.1148 z"
     style="fill:#016fd0;fill-opacity:1;stroke:none" /><path
     style="fill:#016fd0;fill-opacity:1;stroke:none"
     d="m 444.61738,802.27917 0,117.2641 30.07408,0 0,-37.0308 30.84522,0 c 26.09942,0 45.88225,-13.8524 45.88225,-40.7917 0,-22.3164 -15.51578,-39.4416 -42.07479,-39.4416 l -64.72676,0 z m 30.07408,26.5194 32.48387,0 c 8.43169,0 14.45869,5.1701 14.45869,13.5008 0,7.8262 -5.99657,13.5008 -14.55508,13.5008 l -32.38748,0 0,-27.0016 z"
     id="path3068"
     inkscape:connector-curvature="0" /><path
     inkscape:connector-curvature="0"
     style="fill:#016fd0;fill-opacity:1;stroke:none"
     d="m 564.14259,802.25937 0,117.2642 29.30296,0 0,-41.6597 12.33808,0 35.13463,41.6597 35.80937,0 -38.55652,-43.2026 c 15.82382,-1.3361 32.14649,-14.9233 32.14649,-36.0183 0,-24.6764 -19.35962,-38.0433 -40.9663,-38.0433 l -65.20871,0 z m 29.30296,26.2302 33.49597,0 c 8.03522,0 13.88034,6.2881 13.88034,12.3435 0,7.7906 -7.57335,12.3436 -13.44658,12.3436 l -33.92973,0 0,-24.6871 z"
     id="path3072" /><path
     sodipodi:nodetypes="ccccccccccccccccc"
     inkscape:connector-curvature="0"
     id="path3074"
     d="m 791.78028,919.52357 0,-25.4587 58.64447,0 c 8.67727,0 12.43448,-4.6912 12.43448,-9.8363 0,-4.9296 -3.74536,-9.9134 -12.43448,-9.9134 l -26.50077,0 c -23.03542,0 -35.8644,-14.0409 -35.8644,-35.1214 0,-18.8023 11.74823,-36.9344 45.97865,-36.9344 l 57.06367,0 -12.3381,26.3844 -49.35236,0 c -9.434,0 -12.33809,4.9526 -12.33809,9.6821 0,4.8612 3.58876,10.222 10.79583,10.222 l 27.7607,0 c 25.67882,0 36.82152,14.5724 36.82152,33.6556 0,20.5163 -12.4166,37.3201 -38.21944,37.3201 z"
     style="fill:#016fd0;fill-opacity:1;stroke:none" /><path
     style="fill:#016fd0;fill-opacity:1;stroke:none"
     d="m 899.3289,919.52357 0,-25.4587 58.6445,0 c 8.6773,0 12.4345,-4.6912 12.4345,-9.8363 0,-4.9296 -3.7454,-9.9134 -12.4345,-9.9134 l -26.5008,0 c -23.0354,0 -35.8644,-14.0409 -35.8644,-35.1214 0,-18.8023 11.7482,-36.9344 45.9786,-36.9344 l 57.0637,0 -12.3381,26.3844 -49.3524,0 c -9.4339,0 -12.338,4.9526 -12.338,9.6821 0,4.8612 3.5887,10.222 10.7958,10.222 l 27.7607,0 c 25.6789,0 36.8215,14.5724 36.8215,33.6556 0,20.5163 -12.4166,37.3201 -38.2194,37.3201 z"
     id="path3076"
     inkscape:connector-curvature="0"
     sodipodi:nodetypes="ccccccccccccccccc" /></svg>